<svg xmlns="http://www.w3.org/2000/svg" xmlns:xlink="http://www.w3.org/1999/xlink" width="24" height="24" viewBox="0 0 24 24">
  <defs>
    <clipPath id="clip-path">
      <circle id="Эллипс_3" data-name="Эллипс 3" cx="12" cy="12" r="12" transform="translate(862 779.351)" fill="#fff" stroke="#707070" stroke-width="1"/>
    </clipPath>
  </defs>
  <g id="vk_ico" transform="translate(-862 -779.351)" clip-path="url(#clip-path)">
    <g id="vk" transform="translate(862 779.415)">
      <rect id="backgroundrect" width="23.505" height="23.377" fill="none"/>
      <g id="Сгруппировать_1" data-name="Сгруппировать 1" transform="translate(0.357 0.293)">
        <path id="svg_4" d="M.531,11.832a11.4,11.4,0,1,1,11.4,11.4A11.393,11.393,0,0,1,.531,11.832Z" transform="translate(-0.531 -0.436)" fill="#4a76a8" stroke="#4a76a8" stroke-width="0.258"/>
        <path id="svg_2" d="M21.509,20.106a2.707,2.707,0,0,1-.3.026H18.3a.536.536,0,0,1-.347-.13,7.575,7.575,0,0,1-.6-.512c-.487-.48-.957-.975-1.441-1.461-.15-.152-.311-.293-.466-.429a.389.389,0,0,0-.291-.093.322.322,0,0,0-.316.2,1.222,1.222,0,0,0-.107.374c-.024.23-.026.463-.032.694a2.848,2.848,0,0,1-.084.768,1.36,1.36,0,0,1-.135.322.52.52,0,0,1-.46.27c-.846.019-1.694.031-2.54-.023a1.173,1.173,0,0,1-.44-.13,7.143,7.143,0,0,1-2.085-1.545c-.733-.783-1.4-1.62-2.066-2.456a25.822,25.822,0,0,1-2.367-3.6,10.009,10.009,0,0,1-.68-1.415,1.146,1.146,0,0,1-.024-.733.811.811,0,0,1,.094-.208.3.3,0,0,1,.259-.149H6.938a.553.553,0,0,1,.422.173,3.626,3.626,0,0,1,.536.733c.163.285.328.576.474.872A13.744,13.744,0,0,0,9.5,13.505c.2.291.42.566.633.85a.473.473,0,0,0,.388.188c.153,0,.214-.058.214-.214V11.011a.322.322,0,0,0-.288-.314c-.08-.014-.16-.023-.241-.033a.37.37,0,0,1-.373-.383.727.727,0,0,1,.5-.8,1.294,1.294,0,0,1,.467-.066h2.351c.16,0,.322-.008.477.006a2.636,2.636,0,0,1,.492.083.756.756,0,0,1,.58.694,2.327,2.327,0,0,1,.012.258c0,.6,0,1.206,0,1.808v1.92a.655.655,0,0,0,.024.187.276.276,0,0,0,.442.135A3.411,3.411,0,0,0,16.3,13.087c.244-.516.455-1.047.684-1.571.181-.415.371-.826.562-1.237a2.387,2.387,0,0,1,.181-.287.266.266,0,0,1,.241-.118h3.415a.83.83,0,0,1,.672.322.512.512,0,0,1,.1.262,1.835,1.835,0,0,1-.3,1.215,6.869,6.869,0,0,1-.707.995,21.441,21.441,0,0,0-1.545,2c-.121.181-.222.374-.333.561a.311.311,0,0,0,.031.388c.207.248.405.5.622.74.515.564,1.038,1.113,1.556,1.671.166.181.316.373.469.566.053.063.09.135.138.2a.887.887,0,0,1-.581,1.311Zm0,0" transform="translate(-1.596 -3.384)" fill="#fff"/>
      </g>
    </g>
  </g>
</svg>
