<svg xmlns="http://www.w3.org/2000/svg" width="229" height="198" viewBox="0 0 229 198">
  <g id="warn" transform="translate(-896.701 -286)">
    <g id="Многоугольник_1" data-name="Многоугольник 1" transform="translate(896.701 286)" fill="#f77">
      <path d="M 208.1985778808594 197.5 L 20.80138969421387 197.5 C 16.64225006103516 197.5 12.91838932037354 195.3491516113281 10.84008312225342 191.7464752197266 C 8.761805534362793 188.1438446044922 8.764055252075195 183.8434753417969 10.8461389541626 180.2430419921875 L 104.5447235107422 18.21403503417969 C 106.6243057250977 14.61792373657227 110.3458862304688 12.47097969055176 114.5 12.47097969055176 C 118.6541137695313 12.47097969055176 122.3756942749023 14.61792373657227 124.4552764892578 18.21403503417969 L 218.1538543701172 180.2430419921875 C 220.2359466552734 183.8434753417969 220.2381896972656 188.1438446044922 218.159912109375 191.7464752197266 C 216.0816040039063 195.3491516113281 212.3577575683594 197.5 208.1985778808594 197.5 Z" stroke="none"/>
      <path d="M 114.5 12.97097778320313 C 110.526496887207 12.97097778320313 106.9667205810547 15.02456665039063 104.9775543212891 18.46430969238281 L 11.27894592285156 180.4933471679688 C 9.287384033203125 183.937255859375 9.285247802734375 188.0506439208984 11.273193359375 191.4966430664063 C 13.26113891601563 194.9426727294922 16.82308959960938 197 20.8013916015625 197 L 208.1985778808594 197 C 212.1769104003906 197 215.7388610839844 194.9426422119141 217.726806640625 191.4966125488281 C 219.7147521972656 188.0506134033203 219.7125854492188 183.937255859375 217.7210235595703 180.4933471679688 L 124.0224456787109 18.46430969238281 C 122.0332794189453 15.02456665039063 118.473503112793 12.97097778320313 114.5 12.97097778320313 M 114.5 11.97097778320313 C 118.5388870239258 11.97097778320313 122.5777740478516 13.96855163574219 124.8881072998047 17.96369934082031 L 218.5867004394531 179.9927368164063 C 223.2129669189453 187.9927368164063 217.4399108886719 197.9999847412109 208.1985778808594 198 L 20.8013916015625 198 C 11.56005859375 197.9999847412109 5.787033081054688 187.9927368164063 10.41328430175781 179.9927368164063 L 104.1118927001953 17.96369934082031 C 106.4222259521484 13.96855163574219 110.4611129760742 11.97097778320313 114.5 11.97097778320313 Z" stroke="none" fill="#707070"/>
    </g>
    <g id="Многоугольник_2" data-name="Многоугольник 2" transform="translate(918.701 311)" fill="#fff">
      <path d="M 119.1379165649414 159.5 L 118.6378784179688 159.5 L 65.86209869384766 159.5 C 62.34080123901367 159.5 58.88180160522461 159.0315246582031 55.58113861083984 158.1075439453125 C 52.41790008544922 157.2220458984375 49.38776016235352 155.9156799316406 46.5748405456543 154.2247467041016 C 41.15198135375977 150.9648742675781 36.58951950073242 146.3021392822266 33.38069915771484 140.7405853271484 C 30.17189979553223 135.1790466308594 28.41872024536133 128.8954162597656 28.31069946289063 122.5690994262695 C 28.25465965270996 119.2875366210938 28.64030075073242 116.010383605957 29.45689964294434 112.8286590576172 C 30.30898094177246 109.5087203979492 31.63462066650391 106.2796401977539 33.39704132080078 103.2311401367188 L 60.03491973876953 57.15478134155273 C 61.79561996459961 54.10926055908203 63.93017959594727 51.3514404296875 66.37931823730469 48.95798110961914 C 68.72662353515625 46.66400146484375 71.37132263183594 44.69519805908203 74.23993682861328 43.10623931884766 C 79.77037811279297 40.04283905029297 86.08460235595703 38.42361831665039 92.5 38.42361831665039 C 98.91539764404297 38.42361831665039 105.229621887207 40.04283905029297 110.7600631713867 43.10623931884766 C 113.628662109375 44.69519805908203 116.2733612060547 46.66400146484375 118.6206588745117 48.95798110961914 C 121.0698013305664 51.3514404296875 123.2043609619141 54.10926055908203 124.9650573730469 57.15478134155273 L 151.6029815673828 103.2311401367188 C 153.3652648925781 106.2793960571289 154.6907653808594 109.5082778930664 155.5426940917969 112.8281021118164 C 156.3591613769531 116.0096588134766 156.7446594238281 119.2866973876953 156.6885070800781 122.5681991577148 C 156.5802612304688 128.8943634033203 154.826904296875 135.1779327392578 151.6180267333984 140.7396240234375 C 148.4090728759766 146.3013763427734 143.8466339111328 150.96435546875 138.4239196777344 154.2244262695313 C 135.6110992431641 155.9154357910156 132.5810852050781 157.2218780517578 129.4180450439453 158.1074371337891 C 126.1175994873047 159.0314788818359 122.6588821411133 159.5 119.1379165649414 159.5 Z" stroke="none"/>
      <path d="M 92.5 38.92361450195313 C 86.16914367675781 38.92361450195313 79.93869781494141 40.52117919921875 74.48222351074219 43.54359436035156 C 71.65271759033203 45.11090087890625 69.04409790039063 47.0528564453125 66.72878265380859 49.31556701660156 C 64.31220245361328 51.67721557617188 62.20570373535156 54.39889526367188 60.46779632568359 57.40501403808594 L 33.82989501953125 103.4813766479492 C 32.09028625488281 106.4904403686523 30.78193664550781 109.6771392822266 29.94117736816406 112.9529571533203 C 29.13572692871094 116.0913162231445 28.75534057617188 119.3237762451172 28.81059265136719 122.5605621337891 C 28.91717529296875 128.8023071289063 30.64726257324219 135.0024566650391 33.81379699707031 140.49072265625 C 36.98031616210938 145.9789733886719 41.48210144042969 150.5799560546875 46.83244323730469 153.7962188720703 C 49.60697937011719 155.4640808105469 52.5958251953125 156.7526245117188 55.71592712402344 157.6260375976563 C 58.97270202636719 158.5377349853516 62.38636016845703 159 65.86209869384766 159 L 119.1379165649414 159 C 122.6132965087891 159 126.0266799926758 158.5377044677734 129.2832336425781 157.6259613037109 C 132.4031372070313 156.7524719238281 135.391845703125 155.4638366699219 138.1662750244141 153.7958984375 C 143.5164947509766 150.5794219970703 148.0182800292969 145.9782409667969 151.1849212646484 140.4897613525391 C 154.3515319824219 135.0013427734375 156.0817565917969 128.8012237548828 156.1885681152344 122.5596389770508 C 156.2439575195313 119.3229217529297 155.8637084960938 116.090576171875 155.0583801269531 112.9523773193359 C 154.2177734375 109.6766967773438 152.9095611572266 106.4901962280273 151.1700744628906 103.4813766479492 L 124.5321807861328 57.40501403808594 C 122.7942810058594 54.39892578125 120.6877822875977 51.67721557617188 118.2712020874023 49.31556701660156 C 115.9558792114258 47.0528564453125 113.3472595214844 45.11090087890625 110.5177764892578 43.54359436035156 C 105.0613021850586 40.52117919921875 98.83085632324219 38.92361450195313 92.5 38.92361450195313 M 92.5 37.92362976074219 C 105.2911834716797 37.92362976074219 118.0823669433594 44.25059509277344 125.3979187011719 56.90452575683594 L 152.0358276367188 102.9808807373047 C 166.6807708740234 128.3126831054688 148.3970184326172 160 119.1379241943359 160 C 119.1361389160156 160 119.1396865844727 160 119.1379013061523 160 L 65.86209869384766 160 C 36.599853515625 160.0000152587891 18.31834411621094 128.3142242431641 32.96415710449219 102.9808807373047 L 59.60205841064453 56.90452575683594 C 66.91761779785156 44.25059509277344 79.70880889892578 37.92362976074219 92.5 37.92362976074219 Z" stroke="none" fill="#707070"/>
    </g>
    <text id="_" data-name="!" transform="translate(988.701 455)" fill="#505050" font-size="121" font-family="SitkaSmall, Sitka Small"><tspan x="0" y="0">!</tspan></text>
  </g>
</svg>
